<svg xmlns="http://www.w3.org/2000/svg" xmlns:xlink="http://www.w3.org/1999/xlink" viewBox="0,0,256,256" width="75px" height="75px"><g fill="#ffffff" fill-rule="nonzero" stroke="none" stroke-width="1" stroke-linecap="butt" stroke-linejoin="miter" stroke-miterlimit="10" stroke-dasharray="" stroke-dashoffset="0" font-family="none" font-weight="none" font-size="none" text-anchor="none" style="mix-blend-mode: normal"><g transform="scale(5.12,5.12)"><path d="M14.01563,16l0.625,2h-14.64062v1c0,4.598 7.96848,8.37252 18.27148,8.72852l1.99805,6.27148h1.69531l-2.07227,7.61914h17.64648l-1.51953,-7.61914h1.70898l0.22266,-0.69336c1.776,-5.52 6.4153,-10.17903 11.2793,-11.33203l0.76953,-0.18359v-5.79102zM16.73438,18h31.26563v2.23438c-5.015,1.523 -9.68084,6.20263 -11.71484,11.76563h-1.90234l-1.5,3h1.29688l0.92187,4.61914h-12.5918l1.25391,-4.61914h1.05469l-1.125,-3h-1.96289l-1.98828,-6.23828l-0.7168,-0.01367c-8.946,-0.169 -15.47516,-2.98505 -16.78516,-5.74805h15.11914zM30.65625,19.5c0,0 -1.98231,0.83963 -2.44531,1.76563c-0.543,1.087 0.13548,2.03803 0.27148,2.58203c0.136,0.544 -0.95066,0.27203 -1.22266,-0.54297c-0.271,1.087 -0.1348,1.22406 0.4082,2.03906c0.574,0.861 0.72983,2.7168 -0.95117,2.7168c-1.766,0 -1.08594,-2.31055 -1.08594,-2.31055c0,0 -1.63086,0.81483 -1.63086,2.17383c0,2.446 2.17472,2.98952 3.26172,2.85352c1.087,-0.136 1.90039,1.22266 1.90039,1.22266c0.136,-0.679 0.40817,-0.81541 0.95117,-0.81641c0.608,0 1.49483,-0.27094 2.17383,-1.08594c1.293,-1.552 0.9512,-2.7182 0.4082,-3.5332c0.272,2.31 -1.22263,2.44531 -1.76562,2.44531c-0.732,0 -1.49448,-1.35762 -0.27148,-1.76562c1.222,-0.408 0.67969,-1.35937 0.67969,-1.35937c0,0 -0.40961,0.81448 -1.22461,0.27148c-0.8,-0.532 0.67969,-1.62891 0.67969,-1.62891c0,0 -1.35814,-1.2218 -1.49414,-2.7168c-0.136,-1.495 1.35742,-2.31055 1.35742,-2.31055z"></path></g></g></svg>