<svg xmlns="http://www.w3.org/2000/svg" xmlns:xlink="http://www.w3.org/1999/xlink" viewBox="0,0,256,256" width="75px" height="75px"><g fill="#ffffff" fill-rule="nonzero" stroke="none" stroke-width="1" stroke-linecap="butt" stroke-linejoin="miter" stroke-miterlimit="10" stroke-dasharray="" stroke-dashoffset="0" font-family="none" font-weight="none" font-size="none" text-anchor="none" style="mix-blend-mode: normal"><g transform="scale(10.66667,10.66667)"><path d="M8,4v2h-1v2h-1v2h-1v2h-1v2h6v2h-1v1v1h-1v2h1v-1h1v-1h1v-1h1v-1h1v-1h1v-1h1v-1h1v-1h1v-1h1v-1h1v-1h-3v-1h1v-1h1v-1h1v-1h1v-1zM8,20h-1v1h1zM9,6h7v1h-1v1h-1v1h-1v1h-1v1h1v1h1v-1h1v1h-1v1h-1v-1h-1v-1h-1v1h-1v-1h-1v1h-1v-1h-1v-1h1v-2h1zM8,10v1h1v-1zM10,11h1v-1h-1z"></path></g></g></svg>